<svg width="800" height="200" viewBox="0 0 800 200" fill="none" xmlns="http://www.w3.org/2000/svg">
  <defs>
    <!-- Main background gradient with muted, dusty colors -->
    <linearGradient id="bgGrad" x1="0" y1="0" x2="800" y2="200" gradientUnits="userSpaceOnUse">
      <stop stop-color="#8b4a47"/>
      <stop offset="0.25" stop-color="#a4484c"/>
      <stop offset="0.5" stop-color="#a0594d"/>
      <stop offset="0.75" stop-color="#c08170"/>
      <stop offset="1" stop-color="#d4a07a"/>
    </linearGradient>
    
    <!-- Enhanced texture overlay for dusty effect -->
    <pattern id="texture" patternUnits="userSpaceOnUse" width="8" height="8">
      <rect width="8" height="8" fill="#000" fill-opacity="0.03"/>
      <circle cx="2" cy="2" r="0.8" fill="#fff" fill-opacity="0.04"/>
      <circle cx="6" cy="6" r="0.6" fill="#000" fill-opacity="0.02"/>
      <circle cx="1" cy="5" r="0.4" fill="#fff" fill-opacity="0.025"/>
      <circle cx="7" cy="1" r="0.3" fill="#000" fill-opacity="0.015"/>
      <rect x="0" y="3" width="1" height="1" fill="#fff" fill-opacity="0.02"/>
      <rect x="4" y="0" width="1" height="1" fill="#000" fill-opacity="0.01"/>
      <rect x="3" y="7" width="1" height="1" fill="#fff" fill-opacity="0.015"/>
    </pattern>
    
    <!-- Additional noise texture -->
    <pattern id="noise" patternUnits="userSpaceOnUse" width="2" height="2">
      <rect width="2" height="2" fill="#000" fill-opacity="0.01"/>
      <rect x="0" y="0" width="1" height="1" fill="#fff" fill-opacity="0.02"/>
      <rect x="1" y="1" width="1" height="1" fill="#000" fill-opacity="0.008"/>
    </pattern>
    
    <!-- Subtle radial gradients for depth -->
    <radialGradient id="rad1" cx="70%" cy="40%" r="50%" fx="70%" fy="40%">
      <stop offset="0%" stop-color="#d4a07a" stop-opacity="0.15"/>
      <stop offset="100%" stop-color="#8b4a47" stop-opacity="0"/>
    </radialGradient>
    
    <radialGradient id="rad2" cx="25%" cy="70%" r="40%" fx="25%" fy="70%">
      <stop offset="0%" stop-color="#a4484c" stop-opacity="0.12"/>
      <stop offset="100%" stop-color="#8b4a47" stop-opacity="0"/>
    </radialGradient>
    <!-- Waveform gradient -->
    <linearGradient id="waveGrad" x1="0%" y1="0%" x2="100%" y2="0%">
      <stop offset="0%" stop-color="#d4a07a" stop-opacity="0.4"/>
      <stop offset="25%" stop-color="#c08170" stop-opacity="0.6"/>
      <stop offset="50%" stop-color="#a4484c" stop-opacity="0.8"/>
      <stop offset="75%" stop-color="#8b4a47" stop-opacity="0.6"/>
      <stop offset="100%" stop-color="#d4a07a" stop-opacity="0.4"/>
    </linearGradient>
  </defs>
  
  <!-- Base gradient background -->
  <rect width="800" height="200" fill="url(#bgGrad)"/>
  
  <!-- Texture overlay -->
  <rect width="800" height="200" fill="url(#texture)"/>
  
  <!-- Additional noise layer -->
  <rect width="800" height="200" fill="url(#noise)"/>
  
  <!-- Subtle depth elements -->
  <ellipse cx="560" cy="80" rx="200" ry="35" fill="url(#rad1)"/>
  <ellipse cx="200" cy="130" rx="140" ry="30" fill="url(#rad2)"/>
  
  <!-- Audio waveform positioned lower to accent text rather than clash -->
  <g opacity="0.25" transform="translate(50, 20)">
    <!-- Main waveform with gradient - centered across 700px width -->
    <path d="M0,120 L15,105 L30,135 L45,95 L60,145 L75,85 L90,155 L105,75 L120,165 L135,65 L150,175 L165,55 L180,185 L195,120 L210,115 L225,125 L240,110 L255,130 L270,105 L285,135 L300,100 L315,140 L330,95 L345,145 L360,90 L375,150 L390,85 L405,155 L420,80 L435,160 L450,75 L465,165 L480,70 L495,170 L510,65 L525,175 L540,60 L555,180 L570,55 L585,185 L600,120 L615,115 L630,125 L645,110 L660,130 L675,105 L690,135 L700,120" 
          stroke="url(#waveGrad)" stroke-width="2.5" fill="none"/>
    
    <!-- Secondary layer for depth -->
    <path d="M0,130 L20,128 L40,132 L60,126 L80,134 L100,124 L120,136 L140,122 L160,138 L180,120 L200,140 L220,118 L240,142 L260,116 L280,144 L300,114 L320,146 L340,112 L360,148 L380,110 L400,150 L420,108 L440,152 L460,106 L480,154 L500,120 L520,125 L540,115 L560,130 L580,110 L600,135 L620,105 L640,140 L660,100 L680,145 L700,130" 
          stroke="#c08170" stroke-width="1.8" fill="none" opacity="0.6"/>
  </g>
  
  <!-- Subtle bottom fade -->
  <path d="M0,175 Q200,150 400,175 T800,175 V200 H0 Z" fill="#8b4a47" fill-opacity="0.08"/>
</svg>
