<svg width="800" height="200" viewBox="0 0 800 200" fill="none" xmlns="http://www.w3.org/2000/svg">
  <defs>
    <!-- Main background gradient with muted, dusty colors -->
    <linearGradient id="bgGrad" x1="0" y1="0" x2="800" y2="200" gradientUnits="userSpaceOnUse">
      <stop stop-color="#8b4a47"/>
      <stop offset="0.25" stop-color="#a4484c"/>
      <stop offset="0.5" stop-color="#a0594d"/>
      <stop offset="0.75" stop-color="#c08170"/>
      <stop offset="1" stop-color="#d4a07a"/>
    </linearGradient>
    
    <!-- Enhanced texture overlay for dusty effect -->
    <pattern id="texture" patternUnits="userSpaceOnUse" width="8" height="8">
      <rect width="8" height="8" fill="#000" fill-opacity="0.03"/>
      <circle cx="2" cy="2" r="0.8" fill="#fff" fill-opacity="0.04"/>
      <circle cx="6" cy="6" r="0.6" fill="#000" fill-opacity="0.02"/>
      <circle cx="1" cy="5" r="0.4" fill="#fff" fill-opacity="0.025"/>
      <circle cx="7" cy="1" r="0.3" fill="#000" fill-opacity="0.015"/>
      <rect x="0" y="3" width="1" height="1" fill="#fff" fill-opacity="0.02"/>
      <rect x="4" y="0" width="1" height="1" fill="#000" fill-opacity="0.01"/>
      <rect x="3" y="7" width="1" height="1" fill="#fff" fill-opacity="0.015"/>
    </pattern>
    
    <!-- Additional noise texture -->
    <pattern id="noise" patternUnits="userSpaceOnUse" width="2" height="2">
      <rect width="2" height="2" fill="#000" fill-opacity="0.01"/>
      <rect x="0" y="0" width="1" height="1" fill="#fff" fill-opacity="0.02"/>
      <rect x="1" y="1" width="1" height="1" fill="#000" fill-opacity="0.008"/>
    </pattern>
    
    <!-- Subtle radial gradients for depth -->
    <radialGradient id="rad1" cx="70%" cy="40%" r="50%" fx="70%" fy="40%">
      <stop offset="0%" stop-color="#d4a07a" stop-opacity="0.15"/>
      <stop offset="100%" stop-color="#8b4a47" stop-opacity="0"/>
    </radialGradient>
    
    <radialGradient id="rad2" cx="25%" cy="70%" r="40%" fx="25%" fy="70%">
      <stop offset="0%" stop-color="#a4484c" stop-opacity="0.12"/>
      <stop offset="100%" stop-color="#8b4a47" stop-opacity="0"/>
    </radialGradient>
    <!-- Waveform gradient -->
    <linearGradient id="waveGrad" x1="0%" y1="0%" x2="100%" y2="0%">
      <stop offset="0%" stop-color="#d4a07a" stop-opacity="0.4"/>
      <stop offset="25%" stop-color="#c08170" stop-opacity="0.6"/>
      <stop offset="50%" stop-color="#a4484c" stop-opacity="0.8"/>
      <stop offset="75%" stop-color="#8b4a47" stop-opacity="0.6"/>
      <stop offset="100%" stop-color="#d4a07a" stop-opacity="0.4"/>
    </linearGradient>
  </defs>
  
  <!-- Base gradient background -->
  <rect width="800" height="200" fill="url(#bgGrad)"/>
  
  <!-- Texture overlay -->
  <rect width="800" height="200" fill="url(#texture)"/>
  
  <!-- Additional noise layer -->
  <rect width="800" height="200" fill="url(#noise)"/>
  
  <!-- Subtle depth elements -->
  <ellipse cx="560" cy="80" rx="200" ry="35" fill="url(#rad1)"/>
  <ellipse cx="200" cy="130" rx="140" ry="30" fill="url(#rad2)"/>
  
  <!-- Realistic audio waveform positioned lower to accent text rather than clash -->
  <g opacity="0.45" transform="translate(50, 25)">
    <!-- Tightly packed waveform bars like real audio visualization -->
    <g fill="url(#waveGrad)">
      <rect x="0" y="115" width="1.5" height="10"/>
      <rect x="3" y="108" width="1.5" height="24"/>
      <rect x="6" y="120" width="1.5" height="5"/>
      <rect x="9" y="102" width="1.5" height="36"/>
      <rect x="12" y="110" width="1.5" height="20"/>
      <rect x="15" y="105" width="1.5" height="30"/>
      <rect x="18" y="118" width="1.5" height="9"/>
      <rect x="21" y="95" width="1.5" height="50"/>
      <rect x="24" y="112" width="1.5" height="16"/>
      <rect x="27" y="108" width="1.5" height="24"/>
      <rect x="30" y="116" width="1.5" height="8"/>
      <rect x="33" y="98" width="1.5" height="44"/>
      <rect x="36" y="114" width="1.5" height="12"/>
      <rect x="39" y="106" width="1.5" height="28"/>
      <rect x="42" y="119" width="1.5" height="6"/>
      <rect x="45" y="100" width="1.5" height="40"/>
      <rect x="48" y="113" width="1.5" height="14"/>
      <rect x="51" y="107" width="1.5" height="26"/>
      <rect x="54" y="117" width="1.5" height="8"/>
      <rect x="57" y="92" width="1.5" height="56"/>
      <rect x="60" y="111" width="1.5" height="18"/>
      <rect x="63" y="109" width="1.5" height="22"/>
      <rect x="66" y="115" width="1.5" height="10"/>
      <rect x="69" y="96" width="1.5" height="48"/>
      <rect x="72" y="118" width="1.5" height="7"/>
      <rect x="75" y="104" width="1.5" height="32"/>
      <rect x="78" y="116" width="1.5" height="8"/>
      <rect x="81" y="103" width="1.5" height="34"/>
      <rect x="84" y="114" width="1.5" height="12"/>
      <rect x="87" y="108" width="1.5" height="24"/>
      <rect x="90" y="119" width="1.5" height="6"/>
      <rect x="93" y="99" width="1.5" height="42"/>
      <rect x="96" y="112" width="1.5" height="16"/>
      <rect x="99" y="106" width="1.5" height="28"/>
      <rect x="102" y="117" width="1.5" height="8"/>
      <rect x="105" y="94" width="1.5" height="52"/>
      <rect x="108" y="115" width="1.5" height="10"/>
      <rect x="111" y="107" width="1.5" height="26"/>
      <rect x="114" y="118" width="1.5" height="7"/>
      <rect x="117" y="101" width="1.5" height="38"/>
      <rect x="120" y="113" width="1.5" height="14"/>
      <rect x="123" y="109" width="1.5" height="22"/>
      <rect x="126" y="116" width="1.5" height="8"/>
      <rect x="129" y="97" width="1.5" height="46"/>
      <rect x="132" y="114" width="1.5" height="12"/>
      <rect x="135" y="108" width="1.5" height="24"/>
      <rect x="138" y="119" width="1.5" height="6"/>
      <rect x="141" y="105" width="1.5" height="30"/>
      <rect x="144" y="117" width="1.5" height="8"/>
      <rect x="147" y="102" width="1.5" height="36"/>
      <rect x="150" y="115" width="1.5" height="10"/>
      <rect x="153" y="104" width="1.5" height="32"/>
      <rect x="156" y="118" width="1.5" height="7"/>
      <rect x="159" y="93" width="1.5" height="54"/>
      <rect x="162" y="111" width="1.5" height="18"/>
      <rect x="165" y="106" width="1.5" height="28"/>
      <rect x="168" y="116" width="1.5" height="8"/>
      <rect x="171" y="98" width="1.5" height="44"/>
      <rect x="174" y="114" width="1.5" height="12"/>
      <rect x="177" y="109" width="1.5" height="22"/>
      <rect x="180" y="119" width="1.5" height="6"/>
      <rect x="183" y="100" width="1.5" height="40"/>
      <rect x="186" y="112" width="1.5" height="16"/>
      <rect x="189" y="107" width="1.5" height="26"/>
      <rect x="192" y="117" width="1.5" height="8"/>
      <rect x="195" y="95" width="1.5" height="50"/>
      <rect x="198" y="115" width="1.5" height="10"/>
      <rect x="201" y="108" width="1.5" height="24"/>
      <rect x="204" y="118" width="1.5" height="7"/>
      <rect x="207" y="103" width="1.5" height="34"/>
      <rect x="210" y="116" width="1.5" height="8"/>
      <rect x="213" y="105" width="1.5" height="30"/>
      <rect x="216" y="113" width="1.5" height="14"/>
      <rect x="219" y="109" width="1.5" height="22"/>
      <rect x="222" y="119" width="1.5" height="6"/>
      <rect x="225" y="96" width="1.5" height="48"/>
      <rect x="228" y="114" width="1.5" height="12"/>
      <rect x="231" y="106" width="1.5" height="28"/>
      <rect x="234" y="117" width="1.5" height="8"/>
      <rect x="237" y="91" width="1.5" height="58"/>
      <rect x="240" y="111" width="1.5" height="18"/>
      <rect x="243" y="108" width="1.5" height="24"/>
      <rect x="246" y="118" width="1.5" height="7"/>
      <rect x="249" y="104" width="1.5" height="32"/>
      <rect x="252" y="115" width="1.5" height="10"/>
      <rect x="255" y="107" width="1.5" height="26"/>
      <rect x="258" y="119" width="1.5" height="6"/>
      <rect x="261" y="99" width="1.5" height="42"/>
      <rect x="264" y="112" width="1.5" height="16"/>
      <rect x="267" y="106" width="1.5" height="28"/>
      <rect x="270" y="116" width="1.5" height="8"/>
      <rect x="273" y="102" width="1.5" height="36"/>
      <rect x="276" y="114" width="1.5" height="12"/>
      <rect x="279" y="109" width="1.5" height="22"/>
      <rect x="282" y="118" width="1.5" height="7"/>
      <rect x="285" y="97" width="1.5" height="46"/>
      <rect x="288" y="115" width="1.5" height="10"/>
      <rect x="291" y="108" width="1.5" height="24"/>
      <rect x="294" y="119" width="1.5" height="6"/>
      <rect x="297" y="105" width="1.5" height="30"/>
      <rect x="300" y="117" width="1.5" height="8"/>
      <rect x="303" y="103" width="1.5" height="34"/>
      <rect x="306" y="113" width="1.5" height="14"/>
      <rect x="309" y="107" width="1.5" height="26"/>
      <rect x="312" y="118" width="1.5" height="7"/>
      <rect x="315" y="94" width="1.5" height="52"/>
      <rect x="318" y="112" width="1.5" height="16"/>
      <rect x="321" y="106" width="1.5" height="28"/>
      <rect x="324" y="116" width="1.5" height="8"/>
      <rect x="327" y="100" width="1.5" height="40"/>
      <rect x="330" y="114" width="1.5" height="12"/>
      <rect x="333" y="109" width="1.5" height="22"/>
      <rect x="336" y="119" width="1.5" height="6"/>
      <rect x="339" y="98" width="1.5" height="44"/>
      <rect x="342" y="115" width="1.5" height="10"/>
      <rect x="345" y="108" width="1.5" height="24"/>
      <rect x="348" y="117" width="1.5" height="8"/>
      <rect x="351" y="101" width="1.5" height="38"/>
      <rect x="354" y="113" width="1.5" height="14"/>
      <rect x="357" y="107" width="1.5" height="26"/>
      <rect x="360" y="118" width="1.5" height="7"/>
      <rect x="363" y="95" width="1.5" height="50"/>
      <rect x="366" y="111" width="1.5" height="18"/>
      <rect x="369" y="106" width="1.5" height="28"/>
      <rect x="372" y="116" width="1.5" height="8"/>
      <rect x="375" y="92" width="1.5" height="56"/>
      <rect x="378" y="114" width="1.5" height="12"/>
      <rect x="381" y="109" width="1.5" height="22"/>
      <rect x="384" y="119" width="1.5" height="6"/>
      <rect x="387" y="104" width="1.5" height="32"/>
      <rect x="390" y="117" width="1.5" height="8"/>
      <rect x="393" y="105" width="1.5" height="30"/>
      <rect x="396" y="112" width="1.5" height="16"/>
      <rect x="399" y="108" width="1.5" height="24"/>
      <rect x="402" y="118" width="1.5" height="7"/>
      <rect x="405" y="96" width="1.5" height="48"/>
      <rect x="408" y="115" width="1.5" height="10"/>
      <rect x="411" y="107" width="1.5" height="26"/>
      <rect x="414" y="119" width="1.5" height="6"/>
      <rect x="417" y="103" width="1.5" height="34"/>
      <rect x="420" y="113" width="1.5" height="14"/>
      <rect x="423" y="106" width="1.5" height="28"/>
      <rect x="426" y="116" width="1.5" height="8"/>
      <rect x="429" y="99" width="1.5" height="42"/>
      <rect x="432" y="114" width="1.5" height="12"/>
      <rect x="435" y="109" width="1.5" height="22"/>
      <rect x="438" y="118" width="1.5" height="7"/>
      <rect x="441" y="102" width="1.5" height="36"/>
      <rect x="444" y="116" width="1.5" height="8"/>
      <rect x="447" y="104" width="1.5" height="32"/>
      <rect x="450" y="111" width="1.5" height="18"/>
      <rect x="453" y="108" width="1.5" height="24"/>
      <rect x="456" y="119" width="1.5" height="6"/>
      <rect x="459" y="93" width="1.5" height="54"/>
      <rect x="462" y="115" width="1.5" height="10"/>
      <rect x="465" y="107" width="1.5" height="26"/>
      <rect x="468" y="117" width="1.5" height="8"/>
      <rect x="471" y="100" width="1.5" height="40"/>
      <rect x="474" y="112" width="1.5" height="16"/>
      <rect x="477" y="106" width="1.5" height="28"/>
      <rect x="480" y="118" width="1.5" height="7"/>
      <rect x="483" y="97" width="1.5" height="46"/>
      <rect x="486" y="114" width="1.5" height="12"/>
      <rect x="489" y="109" width="1.5" height="22"/>
      <rect x="492" y="119" width="1.5" height="6"/>
      <rect x="495" y="105" width="1.5" height="30"/>
      <rect x="498" y="117" width="1.5" height="8"/>
      <rect x="501" y="103" width="1.5" height="34"/>
      <rect x="504" y="113" width="1.5" height="14"/>
      <rect x="507" y="108" width="1.5" height="24"/>
      <rect x="510" y="118" width="1.5" height="7"/>
      <rect x="513" y="95" width="1.5" height="50"/>
      <rect x="516" y="111" width="1.5" height="18"/>
      <rect x="519" y="106" width="1.5" height="28"/>
      <rect x="522" y="116" width="1.5" height="8"/>
      <rect x="525" y="91" width="1.5" height="58"/>
      <rect x="528" y="114" width="1.5" height="12"/>
      <rect x="531" y="109" width="1.5" height="22"/>
      <rect x="534" y="119" width="1.5" height="6"/>
      <rect x="537" y="104" width="1.5" height="32"/>
      <rect x="540" y="117" width="1.5" height="8"/>
      <rect x="543" y="102" width="1.5" height="36"/>
      <rect x="546" y="115" width="1.5" height="10"/>
      <rect x="549" y="107" width="1.5" height="26"/>
      <rect x="552" y="118" width="1.5" height="7"/>
      <rect x="555" y="98" width="1.5" height="44"/>
      <rect x="558" y="112" width="1.5" height="16"/>
      <rect x="561" y="106" width="1.5" height="28"/>
      <rect x="564" y="116" width="1.5" height="8"/>
      <rect x="567" y="94" width="1.5" height="52"/>
      <rect x="570" y="114" width="1.5" height="12"/>
      <rect x="573" y="109" width="1.5" height="22"/>
      <rect x="576" y="119" width="1.5" height="6"/>
      <rect x="579" y="105" width="1.5" height="30"/>
      <rect x="582" y="117" width="1.5" height="8"/>
      <rect x="585" y="103" width="1.5" height="34"/>
      <rect x="588" y="113" width="1.5" height="14"/>
      <rect x="591" y="108" width="1.5" height="24"/>
      <rect x="594" y="118" width="1.5" height="7"/>
      <rect x="597" y="96" width="1.5" height="48"/>
      <rect x="600" y="115" width="1.5" height="10"/>
      <rect x="603" y="107" width="1.5" height="26"/>
      <rect x="606" y="119" width="1.5" height="6"/>
      <rect x="609" y="101" width="1.5" height="38"/>
      <rect x="612" y="111" width="1.5" height="18"/>
      <rect x="615" y="106" width="1.5" height="28"/>
      <rect x="618" y="116" width="1.5" height="8"/>
      <rect x="621" y="99" width="1.5" height="42"/>
      <rect x="624" y="114" width="1.5" height="12"/>
      <rect x="627" y="109" width="1.5" height="22"/>
      <rect x="630" y="118" width="1.5" height="7"/>
      <rect x="633" y="104" width="1.5" height="32"/>
      <rect x="636" y="117" width="1.5" height="8"/>
      <rect x="639" y="102" width="1.5" height="36"/>
      <rect x="642" y="115" width="1.5" height="10"/>
      <rect x="645" y="108" width="1.5" height="24"/>
      <rect x="648" y="119" width="1.5" height="6"/>
      <rect x="651" y="92" width="1.5" height="56"/>
      <rect x="654" y="112" width="1.5" height="16"/>
      <rect x="657" y="106" width="1.5" height="28"/>
      <rect x="660" y="116" width="1.5" height="8"/>
      <rect x="663" y="97" width="1.5" height="46"/>
      <rect x="666" y="114" width="1.5" height="12"/>
      <rect x="669" y="109" width="1.5" height="22"/>
      <rect x="672" y="118" width="1.5" height="7"/>
      <rect x="675" y="100" width="1.5" height="40"/>
      <rect x="678" y="113" width="1.5" height="14"/>
      <rect x="681" y="107" width="1.5" height="26"/>
      <rect x="684" y="117" width="1.5" height="8"/>
      <rect x="687" y="105" width="1.5" height="30"/>
      <rect x="690" y="115" width="1.5" height="10"/>
      <rect x="693" y="108" width="1.5" height="24"/>
      <rect x="696" y="119" width="1.5" height="6"/>
      <rect x="699" y="111" width="1.5" height="18"/>
    </g>
  </g>
  
  <!-- Subtle bottom fade -->
  <path d="M0,175 Q200,150 400,175 T800,175 V200 H0 Z" fill="#8b4a47" fill-opacity="0.08"/>
</svg>
