<svg width="1440" height="320" viewBox="0 0 1440 320" fill="none" xmlns="http://www.w3.org/2000/svg">
  <defs>
    <linearGradient id="bgGrad" x1="0" y1="0" x2="1440" y2="320" gradientUnits="userSpaceOnUse">
      <stop stop-color="#d64f18"/>
      <stop offset="0.35" stop-color="#ff4a35" stop-opacity="0.9"/>
      <stop offset="0.65" stop-color="#fcce9c" stop-opacity="0.8"/>
      <stop offset="1" stop-color="#e67e22"/>
    </linearGradient>
    <radialGradient id="rad1" cx="60%" cy="50%" r="60%" fx="60%" fy="50%">
      <stop offset="0%" stop-color="#fcce9c" stop-opacity="0.25"/>
      <stop offset="100%" stop-color="#d64f18" stop-opacity="0"/>
    </radialGradient>
    <radialGradient id="rad2" cx="30%" cy="30%" r="50%" fx="30%" fy="30%">
      <stop offset="0%" stop-color="#ff4a35" stop-opacity="0.18"/>
      <stop offset="100%" stop-color="#d64f18" stop-opacity="0"/>
    </radialGradient>
  </defs>
  <rect width="1440" height="320" fill="url(#bgGrad)"/>
  <ellipse cx="900" cy="220" rx="400" ry="80" fill="url(#rad1)"/>
  <ellipse cx="400" cy="100" rx="300" ry="60" fill="url(#rad2)"/>
  <path d="M0,260 Q360,200 720,260 T1440,260 V320 H0 Z" fill="#fff" fill-opacity="0.12"/>
  <g opacity="0.15">
    <path d="M0 60 Q 360 120 720 60 Q 1080 0 1440 60" stroke="#fcce9c" stroke-width="8" fill="none"/>
    <path d="M0 120 Q 360 180 720 120 Q 1080 60 1440 120" stroke="#ff4a35" stroke-width="6" fill="none"/>
    <path d="M0 180 Q 360 240 720 180 Q 1080 120 1440 180" stroke="#d64f18" stroke-width="4" fill="none"/>
  </g>
</svg>
